<svg width="377" height="1089" viewBox="0 0 377 1089" fill="none" xmlns="http://www.w3.org/2000/svg">
<g filter="url(#filter0_d_0_674)">
<path d="M376.673 0L346.091 27.3339L324.487 63.4058L318.646 68.0312L303.139 74.5342L294.135 90.5416L261.12 118.554L252.116 137.063L238.109 158.073L231.606 167.077L232.607 183.084L224.103 212.598L221.102 262.621L203.093 275.126L196.09 285.631L179.082 309.642L168.577 327.65V334.654L181.083 336.154L177.081 340.656L176.081 346.659L180.083 354.163L172.579 360.165L170.078 371.671L155.571 382.175L152.07 386.678V392.68L155.071 402.685L153.571 408.688L157.072 414.69L182.084 423.194V428.197L190.588 435.2L191.088 456.209L187.086 460.211L182.084 471.717L184.585 480.22L208.596 495.227L203.093 496.228L199.592 500.73L178.582 501.73L169.078 510.234L162.575 510.734L145.567 530.243L122.056 531.244L122.556 539.748L124.557 546.751L129.059 550.753H140.064L139.564 558.256L166.576 571.763L175.08 576.265L191.088 574.264L193.589 576.765L189.087 582.267L186.586 597.274L181.583 602.277L180.083 611.281L174.08 621.785L162.575 632.791L161.574 641.294L164.576 646.297L167.077 649.298L164.075 651.799L154.571 649.798L149.569 653.8L143.566 656.301L133.061 653.8L127.058 660.303L120.055 675.31L98.5452 694.319L100.546 698.321L117.554 713.328L151.069 777.357L155.071 783.86L151.069 793.864L141.065 795.365L139.564 799.367L124.557 801.368L115.553 806.87H110.051L90.0413 819.876L75.5347 842.387L68.0312 846.889L57.0262 848.39L43.52 856.393L37.5172 863.897L0 878.904L9.50436 894.411L10.5048 903.915L8.5039 916.421L11.5053 925.425L20.0092 940.932L21.0096 951.437L18.5085 958.94L21.5099 971.446L23.5108 977.949L21.0096 984.452L21.5099 989.955L19.0087 1003.96L13.5062 1005.96V1023.97L10.0046 1034.47L4.00184 1042.98L13.5062 1055.48L20.0092 1065.99L27.0124 1067.99L34.0156 1074.99L35.0161 1082.5L43.0198 1089L57.0262 1087" stroke="#2EB872" stroke-width="10" stroke-linecap="round" stroke-linejoin="round"/>
</g>
<defs>
<filter id="filter0_d_0_674" x="-7.00322" y="-5.0023" width="390.679" height="1103.01" filterUnits="userSpaceOnUse" color-interpolation-filters="sRGB">
<feFlood flood-opacity="0" result="BackgroundImageFix"/>
<feColorMatrix in="SourceAlpha" type="matrix" values="0 0 0 0 0 0 0 0 0 0 0 0 0 0 0 0 0 0 127 0" result="hardAlpha"/>
<feOffset dy="2"/>
<feGaussianBlur stdDeviation="1"/>
<feColorMatrix type="matrix" values="0 0 0 0 0 0 0 0 0 0 0 0 0 0 0 0 0 0 0.2 0"/>
<feBlend mode="normal" in2="BackgroundImageFix" result="effect1_dropShadow_0_674"/>
<feBlend mode="normal" in="SourceGraphic" in2="effect1_dropShadow_0_674" result="shape"/>
</filter>
</defs>
</svg>
