<svg width="380" height="457" viewBox="0 0 380 457" fill="none" xmlns="http://www.w3.org/2000/svg">
<path fill-rule="evenodd" clip-rule="evenodd" d="M294.5 95.2005H85.5C80.2465 95.2005 76 90.945 76 85.6804C76 80.4159 80.2465 76.1604 85.5 76.1604H294.5C299.753 76.1604 304 80.4159 304 85.6804C304 90.945 299.753 95.2005 294.5 95.2005V95.2005Z" fill="#FFBF44"/>
<path fill-rule="evenodd" clip-rule="evenodd" d="M104.5 114.241C99.2465 114.241 95 109.985 95 104.721V85.6804C95 80.4159 99.2465 76.1604 104.5 76.1604C109.753 76.1604 114 80.4159 114 85.6804V104.721C114 109.985 109.753 114.241 104.5 114.241V114.241Z" fill="#FFBF44"/>
<path fill-rule="evenodd" clip-rule="evenodd" d="M66.5 323.681C61.2465 323.681 57 319.426 57 314.161V218.961C57 213.696 61.2465 209.441 66.5 209.441C71.7535 209.441 76 213.696 76 218.961V314.161C76 319.426 71.7535 323.681 66.5 323.681V323.681Z" fill="white"/>
<path fill-rule="evenodd" clip-rule="evenodd" d="M313.5 323.681C308.247 323.681 304 319.426 304 314.161V218.961C304 213.696 308.247 209.441 313.5 209.441C318.753 209.441 323 213.696 323 218.961V314.161C323 319.426 318.753 323.681 313.5 323.681V323.681Z" fill="white"/>
<path fill-rule="evenodd" clip-rule="evenodd" d="M313.5 456.962H66.5C61.2465 456.962 57 452.707 57 447.442C57 442.177 61.2465 437.922 66.5 437.922H313.5C318.753 437.922 323 442.177 323 447.442C323 452.707 318.753 456.962 313.5 456.962V456.962Z" fill="white"/>
<path fill-rule="evenodd" clip-rule="evenodd" d="M275.5 456.962C270.247 456.962 266 452.707 266 447.442V380.802H114V447.442C114 452.707 109.753 456.962 104.5 456.962C99.2465 456.962 95 452.707 95 447.442V371.282C95 366.017 99.2465 361.762 104.5 361.762H275.5C280.753 361.762 285 366.017 285 371.282V447.442C285 452.707 280.753 456.962 275.5 456.962V456.962Z" fill="white"/>
<path fill-rule="evenodd" clip-rule="evenodd" d="M313.5 228.481H275.5V209.441H313.5C318.744 209.441 323 205.176 323 199.921V85.6803C323 69.9341 310.213 57.1202 294.5 57.1202H85.5C69.787 57.1202 57 69.9341 57 85.6803V199.921C57 205.176 61.256 209.441 66.5 209.441H104.5V228.481H66.5C50.787 228.481 38 215.667 38 199.921V85.6803C38 59.4335 59.3085 38.0801 85.5 38.0801H294.5C320.691 38.0801 342 59.4335 342 85.6803V199.921C342 215.667 329.213 228.481 313.5 228.481V228.481Z" fill="#FFBF44"/>
<rect x="142.5" y="209.441" width="95" height="19.0401" fill="#FFBF44"/>
<path fill-rule="evenodd" clip-rule="evenodd" d="M142.5 399.842C137.247 399.842 133 395.586 133 390.322V352.241C133 346.977 137.247 342.721 142.5 342.721C147.753 342.721 152 346.977 152 352.241V390.322C152 395.586 147.753 399.842 142.5 399.842V399.842Z" fill="#FFBF44"/>
<path fill-rule="evenodd" clip-rule="evenodd" d="M237.5 399.842C232.247 399.842 228 395.586 228 390.322V352.241C228 346.977 232.247 342.721 237.5 342.721C242.753 342.721 247 346.977 247 352.241V390.322C247 395.586 242.753 399.842 237.5 399.842V399.842Z" fill="#FFBF44"/>
</svg>
