<svg width="40" height="33" viewBox="0 0 40 33" fill="none" xmlns="http://www.w3.org/2000/svg">
<path fill-rule="evenodd" clip-rule="evenodd" d="M40 3.84799C38.5282 4.50068 36.9467 4.94191 35.2867 5.1402C36.9807 4.12453 38.2822 2.51647 38.8948 0.600014C37.3087 1.54049 35.5528 2.22334 33.6834 2.59147C32.1866 0.996589 30.0536 0 27.6934 0C22.3963 0 18.5024 4.94325 19.6991 10.0766C12.8791 9.73439 6.83184 6.46714 2.78461 1.50233C0.634748 5.19001 1.66931 10.0159 5.32436 12.4585C3.9791 12.4159 2.71323 12.0467 1.6071 11.432C1.51817 15.234 4.24285 18.7894 8.18913 19.5825C7.03414 19.8967 5.76903 19.9686 4.48312 19.7228C5.52742 22.9832 8.55841 25.3558 12.1493 25.4218C8.69906 28.1259 4.35354 29.3331 0 28.8202C3.63138 31.1485 7.94523 32.5073 12.5795 32.5073C27.8154 32.5073 36.4234 19.6381 35.9049 8.09619C37.5083 6.9391 38.8996 5.49364 40 3.84799V3.84799Z" fill="white"/>
</svg>
