<svg width="157" height="30" viewBox="0 0 157 30" fill="none" xmlns="http://www.w3.org/2000/svg">
<g clip-path="url(#clip0_0_1626)">
<path fill-rule="evenodd" clip-rule="evenodd" d="M15.6522 22.9565L25.3304 30L21.6261 18.6261L31.3043 11.7391H19.4348L15.6522 0L11.8696 11.7391H0L9.67826 18.6261L5.97391 30L15.6522 22.9565Z" fill="#27160A"/>
<path fill-rule="evenodd" clip-rule="evenodd" d="M46.6522 22.9565L56.3304 30L52.6261 18.6261L62.3043 11.7391H50.4348L46.6522 0L42.8696 11.7391H31L40.6783 18.6261L36.9739 30L46.6522 22.9565Z" fill="#27160A"/>
<path fill-rule="evenodd" clip-rule="evenodd" d="M77.6522 22.9565L87.3304 30L83.6261 18.6261L93.3043 11.7391H81.4348L77.6522 0L73.8696 11.7391H62L71.6783 18.6261L67.9739 30L77.6522 22.9565Z" fill="#27160A"/>
<path fill-rule="evenodd" clip-rule="evenodd" d="M108.652 22.9565L118.33 30L114.626 18.6261L124.304 11.7391H112.435L108.652 0L104.87 11.7391H93L102.678 18.6261L98.9739 30L108.652 22.9565Z" fill="#27160A"/>
<path fill-rule="evenodd" clip-rule="evenodd" d="M140.652 22.9565L150.33 30L146.626 18.6261L156.304 11.7391H144.435L140.652 0L136.87 11.7391H125L134.678 18.6261L130.974 30L140.652 22.9565Z" fill="#27160A"/>
</g>
<defs>
<clipPath id="clip0_0_1626">
<rect width="157" height="30" fill="white"/>
</clipPath>
</defs>
</svg>
